<svg width="256" height="128" viewBox="0 0 256 128" fill="none" xmlns="http://www.w3.org/2000/svg">
<g clip-path="url(#clip0_206_14542)">
<path d="M144.487 30.1855C160.131 29.365 174.243 36.5466 179.344 40.2168C188.195 55.5131 184.718 75.8926 181.859 84.1904C168.502 115.786 141.468 121.827 129.62 120.915C149.084 106.462 156.175 90.6416 157.318 84.5322C169.028 83.9622 173.054 74.7757 173.603 70.2393C174.677 60.0268 168.205 55.9462 164.82 55.1709C162.556 40.718 150.32 32.488 144.487 30.1855ZM78.4326 37.0049C81.2686 61.0318 91.4696 75.0745 96.2041 79.0869C90.8521 89.482 96.822 97.5525 100.481 100.288C108.806 106.329 115.599 102.773 117.955 100.242C131.632 105.508 144.897 99.0795 149.838 95.2041C142.725 109.132 129.437 117.727 123.696 120.28C105.994 120.28 90.0058 107.081 84.2422 100.47C63.4523 73.1371 71.7084 46.7617 78.4326 37.0049ZM109.241 76.1924C116.075 76.1924 121.615 81.7134 121.615 88.5244C121.615 95.3356 116.075 100.857 109.241 100.857C102.408 100.857 96.8682 95.3356 96.8682 88.5244C96.8684 81.7134 102.408 76.1925 109.241 76.1924ZM159.054 56.3145C165.887 56.3145 171.427 61.8355 171.428 68.6465C171.428 75.4577 165.887 80.9795 159.054 80.9795C152.22 80.9793 146.681 75.4576 146.681 68.6465C146.681 61.8356 152.22 56.3146 159.054 56.3145ZM119.624 7.50293C153.794 3.53639 172.389 24.0081 177.421 34.7451C155.213 24.9883 137.899 26.6069 132.021 28.6357C125.754 18.7649 115.736 19.7906 111.527 21.5459C102.081 25.6265 101.716 33.2635 102.699 36.5918C91.1948 45.6647 90.0278 60.3228 90.874 66.5234C82.4574 53.3474 81.7715 37.5722 82.4805 31.3486C91.469 16.1207 111.001 9.12147 119.624 7.50293ZM117.221 22.5508C124.054 22.5508 129.595 28.0726 129.595 34.8838C129.595 41.695 124.054 47.2168 117.221 47.2168C110.387 47.2165 104.848 41.6948 104.848 34.8838C104.848 28.0727 110.387 22.551 117.221 22.5508Z" fill="white"/>
</g>
<defs>
<clipPath id="clip0_206_14542">
<rect width="256" height="128" fill="white"/>
</clipPath>
</defs>
</svg>
