<svg width="652" height="653" viewBox="0 0 652 653" fill="none" xmlns="http://www.w3.org/2000/svg">
<path d="M408.147 157.781C486.094 153.699 556.405 189.422 581.817 207.681C625.919 283.777 608.597 385.164 594.353 426.444C527.802 583.627 393.105 613.68 334.075 609.144C431.052 537.243 466.379 458.539 472.077 428.146C530.422 425.31 550.479 379.607 553.214 357.039C558.57 306.232 526.32 285.932 509.454 282.076C498.172 210.176 437.206 169.236 408.147 157.781ZM79.0361 191.706C93.1668 311.237 143.992 381.096 167.581 401.056C140.915 452.77 170.658 492.916 188.891 506.525C230.371 536.578 264.216 518.886 275.953 506.298C344.099 532.495 410.195 500.515 434.81 481.235C399.369 550.527 333.16 593.282 304.557 605.983C216.354 605.983 136.699 540.321 107.981 507.433C4.39495 371.457 45.5329 240.245 79.0361 191.706ZM232.537 386.653C266.586 386.653 294.188 414.122 294.188 448.007C294.187 481.891 266.586 509.36 232.537 509.36C198.488 509.36 170.887 481.891 170.887 448.007C170.887 414.122 198.488 386.653 232.537 386.653ZM480.726 287.765C514.774 287.765 542.376 315.234 542.376 349.118C542.376 383.003 514.774 410.472 480.726 410.472C446.677 410.472 419.075 383.003 419.075 349.118C419.075 315.234 446.677 287.765 480.726 287.765ZM284.268 44.9395C454.519 25.2065 547.166 127.047 572.236 180.462C461.584 131.924 375.319 139.975 346.032 150.068C314.808 100.963 264.896 106.067 243.928 114.799C196.864 135.099 195.04 173.09 199.94 189.647C142.62 234.784 136.808 307.705 141.024 338.552C99.0883 273.002 95.6695 194.524 99.2021 163.563C143.987 87.8077 241.306 52.9915 284.268 44.9395ZM272.296 119.799C306.345 119.799 333.946 147.268 333.946 181.152C333.946 215.037 306.344 242.506 272.296 242.506C238.247 242.506 210.646 215.037 210.646 181.152C210.646 147.268 238.247 119.799 272.296 119.799Z" fill="black"/>
</svg>
