<svg width="1024" height="1024" viewBox="0 0 1024 1024" fill="none" xmlns="http://www.w3.org/2000/svg">
<g clip-path="url(#clip0_206_14515)">
<path d="M864 0H160C71.6344 0 0 71.6344 0 160V864C0 952.366 71.6344 1024 160 1024H864C952.366 1024 1024 952.366 1024 864V160C1024 71.6344 952.366 0 864 0Z" fill="url(#paint0_linear_206_14515)"/>
<path d="M606.295 318.604C695.769 313.91 776.479 354.98 805.649 375.971C856.272 463.455 836.389 580.013 820.038 627.471C743.645 808.175 589.029 842.727 521.27 837.512C632.588 754.852 673.139 664.368 679.68 629.427C746.654 626.167 769.676 573.625 772.815 547.68C778.963 489.27 741.945 465.932 722.585 461.499C709.635 378.839 639.651 331.772 606.295 318.604ZM228.514 357.609C244.734 495.029 303.075 575.342 330.152 598.289C299.543 657.742 333.685 703.896 354.614 719.541C402.229 754.091 441.079 733.752 454.553 719.28C532.777 749.398 608.645 712.631 636.9 690.467C596.219 770.128 520.219 819.281 487.386 833.884C386.139 833.884 294.703 758.394 261.739 720.584C142.833 564.26 190.056 413.411 228.514 357.609ZM404.715 581.729C443.799 581.729 475.483 613.309 475.483 652.265C475.483 691.22 443.799 722.8 404.715 722.8C365.631 722.8 333.947 691.22 333.947 652.265C333.947 613.309 365.631 581.73 404.715 581.729ZM689.606 468.038C728.691 468.038 760.375 499.618 760.375 538.573C760.375 577.529 728.69 609.108 689.606 609.108C650.523 609.108 618.839 577.528 618.839 538.573C618.839 499.618 650.522 468.038 689.606 468.038ZM464.098 188.876C659.527 166.19 765.875 283.27 794.653 344.679C667.637 288.877 568.614 298.134 534.996 309.737C499.154 253.283 441.86 259.15 417.791 269.189C363.767 292.527 361.674 336.204 367.299 355.239C301.502 407.13 294.83 490.964 299.67 526.427C251.532 451.068 247.608 360.845 251.663 325.252C303.071 238.159 414.783 198.133 464.098 188.876ZM450.353 274.937C489.437 274.937 521.121 306.516 521.121 345.472C521.121 384.427 489.437 416.006 450.353 416.006C411.269 416.006 379.585 384.427 379.585 345.472C379.585 306.516 411.269 274.937 450.353 274.937Z" fill="white"/>
</g>
<defs>
<linearGradient id="paint0_linear_206_14515" x1="163.341" y1="1344" x2="1344" y2="0.000122971" gradientUnits="userSpaceOnUse">
<stop stop-color="#0082C9"/>
<stop offset="1" stop-color="#1CAFFF"/>
</linearGradient>
<clipPath id="clip0_206_14515">
<rect width="1024" height="1024" fill="white"/>
</clipPath>
</defs>
</svg>
