<svg width="652" height="652" viewBox="0 0 652 652" fill="none" xmlns="http://www.w3.org/2000/svg">
<g clip-path="url(#clip0_206_14530)">
<path d="M420.295 132.604C509.768 127.911 590.478 168.981 619.648 189.972C670.272 277.456 650.389 394.015 634.038 441.473C557.645 622.177 403.028 656.728 335.269 651.513C446.588 568.853 487.139 478.369 493.68 443.428C560.654 440.168 583.676 387.626 586.815 361.681C592.963 303.271 555.945 279.933 536.585 275.5C523.635 192.84 453.651 145.773 420.295 132.604ZM42.5137 171.607C58.7341 309.027 117.075 389.34 144.152 412.287C113.543 471.74 147.685 517.894 168.614 533.539C216.229 568.089 255.079 547.75 268.553 533.278C346.777 563.396 422.646 526.629 450.901 504.465C410.22 584.126 334.219 633.278 301.386 647.881C200.139 647.881 108.703 572.392 75.7393 534.582C-43.1666 378.258 4.05566 227.41 42.5137 171.607ZM218.716 395.729C257.8 395.729 289.484 427.308 289.484 466.264C289.484 505.219 257.8 536.798 218.716 536.798C179.632 536.798 147.948 505.219 147.948 466.264C147.948 427.308 179.632 395.729 218.716 395.729ZM503.606 282.039C542.691 282.039 574.375 313.619 574.375 352.574C574.375 391.53 542.69 423.109 503.606 423.109C464.523 423.109 432.839 391.529 432.839 352.574C432.839 313.619 464.523 282.039 503.606 282.039ZM278.098 2.87598C473.527 -19.8098 579.875 97.2703 608.653 158.679C481.637 102.877 382.614 112.134 348.996 123.737C313.154 67.2833 255.86 73.1503 231.791 83.1895C177.767 106.527 175.674 150.204 181.299 169.239C115.502 221.13 108.83 304.964 113.67 340.427C65.532 265.068 61.608 174.845 65.6631 139.252C117.071 52.1591 228.782 12.1329 278.098 2.87598ZM264.354 88.9365C303.438 88.9368 335.122 120.516 335.122 159.471C335.122 198.426 303.438 230.006 264.354 230.006C225.27 230.006 193.586 198.426 193.586 159.471C193.586 120.515 225.271 88.9365 264.354 88.9365Z" fill="white"/>
</g>
<defs>
<clipPath id="clip0_206_14530">
<rect width="652" height="652" fill="white"/>
</clipPath>
</defs>
</svg>
