<svg width="652" height="653" viewBox="0 0 652 653" fill="none" xmlns="http://www.w3.org/2000/svg">
<path d="M408.147 157.781C486.094 153.699 556.405 189.422 581.817 207.681C625.918 283.777 608.597 385.163 594.353 426.443C527.802 583.626 393.105 613.68 334.075 609.144C431.052 537.243 466.379 458.538 472.077 428.145C530.423 425.309 550.479 379.606 553.214 357.038C558.57 306.232 526.321 285.932 509.455 282.076C498.173 210.176 437.207 169.236 408.147 157.781ZM79.0361 191.705C93.1668 311.237 143.992 381.096 167.581 401.056C140.915 452.769 170.658 492.916 188.891 506.524C230.371 536.577 264.217 518.886 275.954 506.298C344.1 532.495 410.195 500.514 434.81 481.234C399.369 550.526 333.16 593.281 304.557 605.982C216.354 605.982 136.699 540.32 107.981 507.432C4.39478 371.456 45.5328 240.244 79.0361 191.705ZM232.537 386.652C266.586 386.652 294.187 414.121 294.188 448.006C294.188 481.89 266.586 509.359 232.537 509.359C198.488 509.359 170.887 481.89 170.887 448.006C170.887 414.121 198.489 386.652 232.537 386.652ZM480.726 287.764C514.774 287.764 542.376 315.233 542.376 349.117C542.376 383.002 514.774 410.471 480.726 410.471C446.677 410.471 419.075 383.002 419.075 349.117C419.075 315.233 446.677 287.764 480.726 287.764ZM284.269 44.9395C454.52 25.2067 547.167 127.046 572.237 180.461C461.585 131.923 375.319 139.974 346.032 150.067C314.808 100.963 264.896 106.066 243.928 114.798C196.864 135.098 195.04 173.09 199.94 189.647C142.62 234.783 136.808 307.704 141.024 338.551C99.0886 273.001 95.6695 194.524 99.2021 163.563C143.987 87.8073 241.307 52.9914 284.269 44.9395ZM272.296 119.798C306.345 119.798 333.946 147.267 333.946 181.151C333.946 215.036 306.345 242.505 272.296 242.505C238.247 242.505 210.646 215.036 210.646 181.151C210.646 147.267 238.247 119.798 272.296 119.798Z" fill="white"/>
</svg>
