<svg width="324" height="324" viewBox="0 0 324 324" fill="none" xmlns="http://www.w3.org/2000/svg">
<g clip-path="url(#clip0_206_14536)">
<path d="M176.462 110.339C190.185 109.619 202.564 115.917 207.038 119.137C214.802 132.555 211.753 150.432 209.245 157.711C197.528 185.426 173.813 190.726 163.421 189.926C180.494 177.248 186.715 163.37 187.718 158.011C197.99 157.511 201.52 149.452 202.002 145.473C202.945 136.514 197.267 132.935 194.298 132.255C192.312 119.577 181.578 112.359 176.462 110.339ZM118.521 116.319C121.008 137.396 129.956 149.714 134.109 153.233C129.415 162.352 134.651 169.431 137.861 171.831C145.164 177.129 151.122 174.011 153.188 171.791C165.186 176.41 176.823 170.771 181.156 167.371C174.917 179.589 163.26 187.129 158.225 189.368C142.696 189.368 128.672 177.789 123.616 171.99C105.379 148.014 112.622 124.878 118.521 116.319ZM145.545 150.694C151.539 150.694 156.399 155.538 156.399 161.513C156.399 167.487 151.539 172.33 145.545 172.33C139.551 172.33 134.692 167.487 134.691 161.513C134.691 155.538 139.551 150.694 145.545 150.694ZM189.24 133.258C195.235 133.258 200.094 138.101 200.094 144.076C200.094 150.051 195.235 154.893 189.24 154.894C183.246 154.894 178.386 150.051 178.386 144.076C178.386 138.101 183.246 133.258 189.24 133.258ZM154.652 90.4414C184.626 86.962 200.938 104.918 205.352 114.337C185.871 105.778 170.683 107.199 165.526 108.979C160.029 100.32 151.243 101.219 147.551 102.759C139.265 106.338 138.944 113.038 139.807 115.957C129.715 123.916 128.691 136.774 129.434 142.213C122.05 130.655 121.448 116.817 122.07 111.357C129.955 97.9999 147.088 91.8613 154.652 90.4414ZM152.545 103.641C158.539 103.641 163.398 108.484 163.398 114.459C163.398 120.434 158.539 125.277 152.545 125.277C146.55 125.277 141.69 120.434 141.69 114.459C141.691 108.484 146.551 103.641 152.545 103.641Z" fill="white"/>
<path d="M146.748 217.296C149.71 217.296 151.742 218.691 152.824 220.125V217.581H156.488V235.115H152.834V232.505C151.714 234.005 149.615 235.4 146.691 235.4C142.135 235.4 138.48 231.679 138.479 226.268C138.479 220.856 142.134 217.296 146.748 217.296ZM108.196 235.116H104.569V217.581H108.196V235.116ZM134.921 235.116H131.295V217.581H134.921V235.116ZM71.2939 235.115H67.2402L65.5508 230.312H55.7158L54.0254 235.115H50L58.4209 211.58H62.874L71.2939 235.115ZM101.236 221.046H100.315C97.6383 221.046 95.9864 222.157 95.9863 225.878V235.115H92.3594V217.581H95.9863V220.125C97.0022 218.378 98.7586 217.296 101.236 217.296V221.046ZM78.3672 225.243L84.7373 217.581H89.7598L81.6807 226.363L89.7598 235.106H84.8613L78.3672 227.568V235.106H74.7412V211.562H78.3672V225.243ZM119.74 231.859L124.706 217.581H128.551L121.867 235.106H117.548L110.893 217.581H114.775L119.74 231.859ZM147.508 220.448C144.802 220.448 142.191 222.48 142.191 226.268C142.192 230.055 144.802 232.248 147.508 232.248C150.251 232.248 152.824 230.084 152.824 226.334C152.824 222.584 150.213 220.448 147.508 220.448ZM56.7979 227.169H64.4688L60.6523 216.251L56.7979 227.169ZM106.421 210.602C107.693 210.602 108.709 211.618 108.709 212.928C108.709 214.238 107.693 215.254 106.421 215.254C105.111 215.254 104.095 214.238 104.095 212.928C104.095 211.618 105.149 210.602 106.421 210.602ZM133.135 210.602C134.407 210.602 135.423 211.618 135.423 212.928C135.423 214.238 134.407 215.254 133.135 215.254C131.825 215.254 130.809 214.238 130.809 212.928C130.809 211.618 131.863 210.602 133.135 210.602Z" fill="white"/>
<path d="M259.548 220.082C260.167 219.228 261.011 218.534 262.079 218C263.169 217.444 264.376 217.166 265.7 217.166C267.26 217.166 268.67 217.54 269.93 218.288C271.19 219.036 272.184 220.104 272.91 221.492C273.636 222.86 274 224.43 274 226.203C274 227.976 273.636 229.568 272.91 230.978C272.184 232.366 271.18 233.456 269.898 234.246C268.638 235.015 267.238 235.4 265.7 235.4C264.333 235.4 263.115 235.133 262.047 234.599C261 234.065 260.167 233.381 259.548 232.548V235.111H255.895V211.398H259.548V220.082ZM270.282 226.203C270.282 224.985 270.026 223.938 269.513 223.063C269.022 222.165 268.36 221.492 267.527 221.044C266.715 220.574 265.839 220.339 264.899 220.339C263.98 220.339 263.105 220.574 262.271 221.044C261.46 221.514 260.797 222.197 260.285 223.095C259.793 223.992 259.548 225.049 259.548 226.267C259.548 227.485 259.793 228.553 260.285 229.471C260.797 230.369 261.46 231.052 262.271 231.522C263.105 231.992 263.98 232.227 264.899 232.227C265.839 232.227 266.715 231.992 267.527 231.522C268.36 231.031 269.022 230.326 269.513 229.407C270.026 228.489 270.282 227.421 270.282 226.203Z" fill="white"/>
<path d="M232.961 226.204C232.961 224.431 233.324 222.861 234.05 221.494C234.798 220.127 235.802 219.069 237.063 218.322C238.344 217.553 239.754 217.168 241.292 217.168C242.681 217.168 243.888 217.446 244.913 218.001C245.96 218.535 246.793 219.208 247.413 220.02V217.456H251.098V235.113H247.413V232.485C246.793 233.318 245.95 234.013 244.881 234.568C243.813 235.124 242.596 235.401 241.228 235.401C239.712 235.401 238.323 235.017 237.063 234.248C235.802 233.457 234.798 232.368 234.05 230.979C233.324 229.569 232.961 227.978 232.961 226.204ZM247.413 226.269C247.413 225.051 247.157 223.993 246.644 223.096C246.153 222.199 245.501 221.515 244.689 221.045C243.877 220.575 243.002 220.34 242.062 220.34C241.122 220.34 240.246 220.575 239.434 221.045C238.622 221.494 237.96 222.167 237.447 223.064C236.956 223.94 236.71 224.987 236.71 226.204C236.71 227.422 236.956 228.49 237.447 229.409C237.96 230.328 238.622 231.033 239.434 231.524C240.267 231.994 241.143 232.229 242.062 232.229C243.002 232.229 243.877 231.994 244.689 231.524C245.501 231.054 246.153 230.37 246.644 229.473C247.157 228.554 247.413 227.486 247.413 226.269Z" fill="white"/>
<path d="M229.384 211.398V235.111H225.73V211.398H229.384Z" fill="white"/>
<path d="M220.934 211.398V235.111H217.281V211.398H220.934Z" fill="white"/>
<path d="M204.504 235.401C202.838 235.401 201.332 235.027 199.986 234.28C198.64 233.511 197.583 232.442 196.814 231.075C196.045 229.687 195.66 228.084 195.66 226.269C195.66 224.474 196.055 222.883 196.846 221.494C197.636 220.105 198.715 219.037 200.082 218.29C201.45 217.542 202.977 217.168 204.665 217.168C206.352 217.168 207.88 217.542 209.247 218.29C210.614 219.037 211.693 220.105 212.483 221.494C213.274 222.883 213.669 224.474 213.669 226.269C213.669 228.063 213.263 229.655 212.451 231.043C211.64 232.432 210.529 233.511 209.119 234.28C207.73 235.027 206.192 235.401 204.504 235.401ZM204.504 232.229C205.444 232.229 206.32 232.005 207.132 231.556C207.965 231.107 208.638 230.434 209.151 229.537C209.664 228.64 209.92 227.55 209.92 226.269C209.92 224.987 209.674 223.908 209.183 223.032C208.692 222.135 208.04 221.462 207.228 221.013C206.416 220.565 205.541 220.34 204.601 220.34C203.661 220.34 202.785 220.565 201.973 221.013C201.182 221.462 200.552 222.135 200.082 223.032C199.612 223.908 199.377 224.987 199.377 226.269C199.377 228.17 199.858 229.644 200.819 230.691C201.802 231.716 203.03 232.229 204.504 232.229Z" fill="white"/>
<path d="M170.844 223.93C170.844 221.751 171.346 219.797 172.35 218.066C173.375 216.336 174.753 214.99 176.484 214.029C178.235 213.046 180.147 212.555 182.22 212.555C184.591 212.555 186.695 213.142 188.532 214.317C190.391 215.471 191.737 217.116 192.57 219.252H188.18C187.603 218.077 186.802 217.201 185.776 216.624C184.751 216.048 183.565 215.759 182.22 215.759C180.745 215.759 179.432 216.09 178.278 216.753C177.124 217.415 176.217 218.365 175.554 219.604C174.913 220.844 174.593 222.286 174.593 223.93C174.593 225.575 174.913 227.017 175.554 228.256C176.217 229.495 177.124 230.457 178.278 231.14C179.432 231.803 180.745 232.134 182.22 232.134C183.565 232.134 184.751 231.845 185.776 231.269C186.802 230.692 187.603 229.816 188.18 228.641H192.57C191.737 230.777 190.391 232.422 188.532 233.576C186.695 234.729 184.591 235.306 182.22 235.306C180.126 235.306 178.214 234.826 176.484 233.864C174.753 232.882 173.375 231.525 172.35 229.795C171.346 228.064 170.844 226.109 170.844 223.93Z" fill="white"/>
</g>
<defs>
<clipPath id="clip0_206_14536">
<rect width="224" height="146" fill="white" transform="translate(50 90)"/>
</clipPath>
</defs>
</svg>
