<svg width="1024" height="1024" viewBox="0 0 1024 1024" fill="none" xmlns="http://www.w3.org/2000/svg">
<g clip-path="url(#clip0_206_14521)">
<path d="M1024 0H0V1024H1024V0Z" fill="url(#paint0_linear_206_14521)"/>
<path d="M606.296 318.607C695.769 313.914 776.479 354.983 805.649 375.974C856.273 463.457 836.39 580.016 820.039 627.474C743.647 808.178 589.03 842.729 521.271 837.514C632.589 754.854 673.14 664.371 679.681 629.43C746.655 626.17 769.677 573.627 772.816 547.682C778.964 489.273 741.946 465.935 722.586 461.502C709.636 378.842 639.652 331.776 606.296 318.607ZM228.514 357.607C244.734 495.026 303.075 575.339 330.152 598.286C299.543 657.739 333.685 703.893 354.614 719.538C402.229 754.088 441.079 733.749 454.553 719.277C532.776 749.394 608.645 712.628 636.9 690.464C596.219 770.125 520.219 819.277 487.386 833.88C386.139 833.88 294.703 758.391 261.739 720.581C142.834 564.258 190.056 413.41 228.514 357.607ZM404.715 581.731C443.799 581.732 475.482 613.311 475.482 652.267C475.482 691.222 443.799 722.802 404.715 722.802C365.631 722.802 333.946 691.222 333.946 652.267C333.946 613.311 365.631 581.731 404.715 581.731ZM689.604 468.04C728.688 468.04 760.373 499.62 760.373 538.575C760.373 577.53 728.688 609.109 689.604 609.109C650.521 609.109 618.837 577.53 618.837 538.575C618.837 499.62 650.521 468.04 689.604 468.04ZM464.098 188.876C659.527 166.19 765.874 283.27 794.652 344.679C667.637 288.877 568.614 298.134 534.996 309.737C499.154 253.284 441.86 259.15 417.791 269.189C363.767 292.527 361.674 336.204 367.299 355.239C301.502 407.13 294.83 490.964 299.67 526.427C251.532 451.068 247.608 360.845 251.663 325.252C303.071 238.159 414.783 198.133 464.098 188.876ZM450.353 274.938C489.437 274.938 521.121 306.517 521.121 345.473C521.121 384.428 489.436 416.007 450.353 416.007C411.269 416.007 379.585 384.428 379.585 345.473C379.585 306.517 411.269 274.938 450.353 274.938Z" fill="white"/>
</g>
<defs>
<linearGradient id="paint0_linear_206_14521" x1="163.341" y1="1344" x2="1344" y2="0.000122971" gradientUnits="userSpaceOnUse">
<stop stop-color="#0082C9"/>
<stop offset="1" stop-color="#1CAFFF"/>
</linearGradient>
<clipPath id="clip0_206_14521">
<rect width="1024" height="1024" fill="white"/>
</clipPath>
</defs>
</svg>
