<svg width="224" height="146" viewBox="0 0 224 146" fill="none" xmlns="http://www.w3.org/2000/svg">
<g clip-path="url(#clip0_206_14539)">
<g clip-path="url(#clip1_206_14539)">
<path d="M126.462 20.3389C140.185 19.619 152.564 25.9172 157.038 29.1367C164.802 42.5545 161.753 60.4321 159.245 67.7109C147.528 95.4262 123.813 100.726 113.421 99.9258C130.494 87.248 136.715 73.3699 137.718 68.0107C147.99 67.5107 151.52 59.452 152.002 55.4727C152.945 46.5141 147.267 42.9348 144.298 42.2549C142.312 29.577 131.578 22.3585 126.462 20.3389ZM68.5205 26.3193C71.0083 47.3958 79.9564 59.7139 84.1094 63.2334C79.4147 72.3519 84.6513 79.4314 87.8613 81.8311C95.1635 87.1294 101.122 84.0106 103.188 81.791C115.186 86.4103 126.823 80.7705 131.156 77.3711C124.917 89.5891 113.26 97.1285 108.225 99.3682C92.696 99.3681 78.672 87.7893 73.6162 81.9902C55.3794 58.0143 62.6221 34.8779 68.5205 26.3193ZM95.5449 60.6943C101.539 60.6943 106.399 65.538 106.399 71.5127C106.399 77.4872 101.539 82.3301 95.5449 82.3301C89.5507 82.3299 84.6917 77.4871 84.6914 71.5127C84.6914 65.538 89.5506 60.6945 95.5449 60.6943ZM139.24 43.2578C145.235 43.2579 150.094 48.1015 150.094 54.0762C150.094 60.0507 145.235 64.8935 139.24 64.8936C133.246 64.8936 128.386 60.0507 128.386 54.0762C128.386 48.1014 133.246 43.2578 139.24 43.2578ZM104.652 0.441406C134.626 -3.038 150.938 14.9184 155.352 24.3369C135.871 15.7783 120.683 17.1988 115.526 18.9785C110.029 10.3203 101.243 11.2191 97.5508 12.7588C89.2649 16.3382 88.9439 23.0375 89.8066 25.957C79.7151 33.9157 78.6913 46.7738 79.4336 52.2129C72.0505 40.6548 71.4484 26.8165 72.0703 21.3574C79.9549 7.99988 97.0885 1.8613 104.652 0.441406ZM102.545 13.6406C108.539 13.6407 113.398 18.4844 113.398 24.459C113.398 30.4337 108.539 35.2773 102.545 35.2773C96.5504 35.2773 91.6904 30.4337 91.6904 24.459C91.6905 18.4843 96.5505 13.6406 102.545 13.6406Z" fill="white"/>
<path d="M96.748 127.296C99.71 127.296 101.742 128.691 102.824 130.125V127.581H106.488V145.115H102.834V142.505C101.714 144.005 99.6153 145.4 96.6914 145.4C92.1346 145.4 88.4796 141.679 88.4795 136.268C88.4795 130.856 92.1342 127.296 96.748 127.296ZM58.1963 145.116H54.5693V127.581H58.1963V145.116ZM84.9209 145.116H81.2949V127.581H84.9209V145.116ZM21.2939 145.115H17.2402L15.5508 140.312H5.71582L4.02539 145.115H0L8.4209 121.58H12.874L21.2939 145.115ZM51.2363 131.046H50.3154C47.6383 131.046 45.9864 132.157 45.9863 135.878V145.115H42.3594V127.581H45.9863V130.125C47.0022 128.378 48.7586 127.296 51.2363 127.296V131.046ZM28.3672 135.243L34.7373 127.581H39.7598L31.6807 136.363L39.7598 145.106H34.8613L28.3672 137.568V145.106H24.7412V121.562H28.3672V135.243ZM69.7402 141.859L74.7061 127.581H78.5508L71.8672 145.106H67.5479L60.8926 127.581H64.7754L69.7402 141.859ZM97.5078 130.448C94.8022 130.448 92.1914 132.48 92.1914 136.268C92.1915 140.055 94.8022 142.248 97.5078 142.248C100.251 142.248 102.824 140.084 102.824 136.334C102.824 132.584 100.213 130.448 97.5078 130.448ZM6.79785 137.169H14.4688L10.6523 126.251L6.79785 137.169ZM56.4209 120.602C57.693 120.602 58.709 121.618 58.709 122.928C58.7089 124.238 57.693 125.254 56.4209 125.254C55.1109 125.254 54.0948 124.238 54.0947 122.928C54.0947 121.618 55.1488 120.602 56.4209 120.602ZM83.1348 120.602C84.4069 120.602 85.4229 121.618 85.4229 122.928C85.4228 124.238 84.4069 125.254 83.1348 125.254C81.8247 125.254 80.8086 124.238 80.8086 122.928C80.8086 121.618 81.8627 120.602 83.1348 120.602Z" fill="white"/>
<path d="M209.548 130.082C210.167 129.228 211.011 128.534 212.079 128C213.169 127.444 214.376 127.166 215.7 127.166C217.26 127.166 218.67 127.54 219.93 128.288C221.19 129.036 222.184 130.104 222.91 131.492C223.636 132.86 224 134.43 224 136.203C224 137.976 223.636 139.568 222.91 140.978C222.184 142.366 221.18 143.456 219.898 144.246C218.638 145.015 217.238 145.4 215.7 145.4C214.333 145.4 213.115 145.133 212.047 144.599C211 144.065 210.167 143.381 209.548 142.548V145.111H205.895V121.398H209.548V130.082ZM220.282 136.203C220.282 134.985 220.026 133.938 219.513 133.063C219.022 132.165 218.36 131.492 217.527 131.044C216.715 130.574 215.839 130.339 214.899 130.339C213.98 130.339 213.105 130.574 212.271 131.044C211.46 131.514 210.797 132.197 210.285 133.095C209.793 133.992 209.548 135.049 209.548 136.267C209.548 137.485 209.793 138.553 210.285 139.471C210.797 140.369 211.46 141.052 212.271 141.522C213.105 141.992 213.98 142.227 214.899 142.227C215.839 142.227 216.715 141.992 217.527 141.522C218.36 141.031 219.022 140.326 219.513 139.407C220.026 138.489 220.282 137.421 220.282 136.203Z" fill="white"/>
<path d="M182.961 136.204C182.961 134.431 183.324 132.861 184.05 131.494C184.798 130.127 185.802 129.069 187.063 128.322C188.344 127.553 189.754 127.168 191.292 127.168C192.681 127.168 193.888 127.446 194.913 128.001C195.96 128.535 196.793 129.208 197.413 130.02V127.456H201.098V145.113H197.413V142.485C196.793 143.318 195.95 144.013 194.881 144.568C193.813 145.124 192.596 145.401 191.228 145.401C189.712 145.401 188.323 145.017 187.063 144.248C185.802 143.457 184.798 142.368 184.05 140.979C183.324 139.569 182.961 137.978 182.961 136.204ZM197.413 136.269C197.413 135.051 197.157 133.993 196.644 133.096C196.153 132.199 195.501 131.515 194.689 131.045C193.877 130.575 193.002 130.34 192.062 130.34C191.122 130.34 190.246 130.575 189.434 131.045C188.622 131.494 187.96 132.167 187.447 133.064C186.956 133.94 186.71 134.987 186.71 136.204C186.71 137.422 186.956 138.49 187.447 139.409C187.96 140.328 188.622 141.033 189.434 141.524C190.267 141.994 191.143 142.229 192.062 142.229C193.002 142.229 193.877 141.994 194.689 141.524C195.501 141.054 196.153 140.37 196.644 139.473C197.157 138.554 197.413 137.486 197.413 136.269Z" fill="white"/>
<path d="M179.384 121.398V145.111H175.73V121.398H179.384Z" fill="white"/>
<path d="M170.934 121.398V145.111H167.281V121.398H170.934Z" fill="white"/>
<path d="M154.504 145.401C152.838 145.401 151.332 145.027 149.986 144.28C148.64 143.511 147.583 142.442 146.814 141.075C146.045 139.687 145.66 138.084 145.66 136.269C145.66 134.474 146.055 132.883 146.846 131.494C147.636 130.105 148.715 129.037 150.082 128.29C151.45 127.542 152.977 127.168 154.665 127.168C156.352 127.168 157.88 127.542 159.247 128.29C160.614 129.037 161.693 130.105 162.483 131.494C163.274 132.883 163.669 134.474 163.669 136.269C163.669 138.063 163.263 139.655 162.451 141.043C161.64 142.432 160.529 143.511 159.119 144.28C157.73 145.027 156.192 145.401 154.504 145.401ZM154.504 142.229C155.444 142.229 156.32 142.005 157.132 141.556C157.965 141.107 158.638 140.434 159.151 139.537C159.664 138.64 159.92 137.55 159.92 136.269C159.92 134.987 159.674 133.908 159.183 133.032C158.692 132.135 158.04 131.462 157.228 131.013C156.416 130.565 155.541 130.34 154.601 130.34C153.661 130.34 152.785 130.565 151.973 131.013C151.182 131.462 150.552 132.135 150.082 133.032C149.612 133.908 149.377 134.987 149.377 136.269C149.377 138.17 149.858 139.644 150.819 140.691C151.802 141.716 153.03 142.229 154.504 142.229Z" fill="white"/>
<path d="M120.844 133.93C120.844 131.751 121.346 129.797 122.35 128.066C123.375 126.336 124.753 124.99 126.484 124.029C128.235 123.046 130.147 122.555 132.22 122.555C134.591 122.555 136.695 123.142 138.532 124.317C140.391 125.471 141.737 127.116 142.57 129.252H138.18C137.603 128.077 136.802 127.201 135.776 126.624C134.751 126.048 133.565 125.759 132.22 125.759C130.745 125.759 129.432 126.09 128.278 126.753C127.124 127.415 126.217 128.365 125.554 129.604C124.913 130.844 124.593 132.286 124.593 133.93C124.593 135.575 124.913 137.017 125.554 138.256C126.217 139.495 127.124 140.457 128.278 141.14C129.432 141.803 130.745 142.134 132.22 142.134C133.565 142.134 134.751 141.845 135.776 141.269C136.802 140.692 137.603 139.816 138.18 138.641H142.57C141.737 140.777 140.391 142.422 138.532 143.576C136.695 144.729 134.591 145.306 132.22 145.306C130.126 145.306 128.214 144.826 126.484 143.864C124.753 142.882 123.375 141.525 122.35 139.795C121.346 138.064 120.844 136.109 120.844 133.93Z" fill="white"/>
</g>
</g>
<defs>
<clipPath id="clip0_206_14539">
<rect width="224" height="146" fill="white"/>
</clipPath>
<clipPath id="clip1_206_14539">
<rect width="224" height="146" fill="white"/>
</clipPath>
</defs>
</svg>
