<svg width="1024" height="1024" viewBox="0 0 1024 1024" fill="none" xmlns="http://www.w3.org/2000/svg">
<g opacity="0.55" filter="url(#filter0_f_206_14545)">
<path d="M468.997 100L357.361 100.406C347.554 100.406 337.747 100.402 327.94 100.462C319.678 100.514 311.421 100.607 303.161 100.83C285.167 101.315 267.014 102.373 249.217 105.565C231.164 108.801 214.36 114.085 197.959 122.414C181.835 130.602 167.082 141.297 154.291 154.057C141.501 166.816 130.78 181.53 122.573 197.609C114.217 213.98 108.919 230.752 105.673 248.771C102.477 266.517 101.418 284.618 100.931 302.563C100.709 310.8 100.613 319.039 100.563 327.279C100.503 337.063 100 349.216 100 358.999V554.998L100.508 667.427C100.508 677.223 100.504 687.019 100.563 696.815C100.613 705.067 100.709 713.317 100.932 721.566C101.418 739.542 102.479 757.675 105.678 775.452C108.923 793.485 114.22 810.27 122.569 826.653C130.777 842.759 141.5 857.495 154.291 870.272C167.081 883.049 181.831 893.757 197.951 901.956C214.362 910.302 231.174 915.595 249.238 918.836C267.026 922.029 285.174 923.087 303.161 923.574C311.421 923.796 319.679 923.891 327.941 923.941C337.748 924 347.554 924 357.361 924H667.643C677.432 924 687.219 924 697.008 923.941C705.253 923.891 713.495 923.796 721.738 923.574C739.698 923.087 757.816 922.027 775.579 918.832C793.597 915.59 810.367 910.299 826.738 901.959C842.83 893.761 857.555 883.051 870.321 870.272C883.086 857.497 893.786 842.763 901.978 826.661C910.317 810.269 915.603 793.476 918.843 775.431C922.034 757.66 923.092 739.534 923.577 721.566C923.8 713.316 923.894 705.066 923.945 696.815C924 687.019 924 677.223 924 667.427V356.627C924 346.845 924 337.062 923.945 327.279C923.894 319.038 923.8 310.799 923.576 302.563C923.092 284.609 922.033 266.502 918.84 248.75C915.602 230.74 910.314 213.979 901.982 197.616C893.789 181.533 883.088 166.817 870.321 154.057C857.556 141.299 842.834 130.605 826.746 122.418C810.365 114.083 793.587 108.797 775.558 105.56C757.803 102.372 739.691 101.315 721.738 100.83C713.495 100.607 705.253 100.514 697.008 100.462C687.219 100.402 677.432 100.406 667.643 100.406L553.997 100H468.997Z" fill="black"/>
</g>
<path d="M468.997 100L357.361 100.406C347.554 100.406 337.747 100.402 327.94 100.462C319.678 100.514 311.421 100.607 303.161 100.83C285.167 101.315 267.014 102.373 249.217 105.565C231.164 108.801 214.36 114.085 197.959 122.414C181.835 130.602 167.082 141.297 154.291 154.057C141.501 166.816 130.78 181.53 122.573 197.609C114.217 213.98 108.919 230.752 105.673 248.771C102.477 266.517 101.418 284.618 100.931 302.563C100.709 310.8 100.613 319.039 100.563 327.279C100.503 337.063 100 349.216 100 358.999V554.998L100.508 667.427C100.508 677.223 100.504 687.019 100.563 696.815C100.613 705.067 100.709 713.317 100.932 721.566C101.418 739.542 102.479 757.675 105.678 775.452C108.923 793.485 114.22 810.27 122.569 826.653C130.777 842.759 141.5 857.495 154.291 870.272C167.081 883.049 181.831 893.757 197.951 901.956C214.362 910.302 231.174 915.595 249.238 918.836C267.026 922.029 285.174 923.087 303.161 923.574C311.421 923.796 319.679 923.891 327.941 923.941C337.748 924 347.554 924 357.361 924H667.643C677.432 924 687.219 924 697.008 923.941C705.253 923.891 713.495 923.796 721.738 923.574C739.698 923.087 757.816 922.027 775.579 918.832C793.597 915.59 810.367 910.299 826.738 901.959C842.83 893.761 857.555 883.051 870.321 870.272C883.086 857.497 893.786 842.763 901.978 826.661C910.317 810.269 915.603 793.476 918.843 775.431C922.034 757.66 923.092 739.534 923.577 721.566C923.8 713.316 923.894 705.066 923.945 696.815C924 687.019 924 677.223 924 667.427V356.627C924 346.845 924 337.062 923.945 327.279C923.894 319.038 923.8 310.799 923.576 302.563C923.092 284.609 922.033 266.502 918.84 248.75C915.602 230.74 910.314 213.979 901.982 197.616C893.789 181.533 883.088 166.817 870.321 154.057C857.556 141.299 842.834 130.605 826.746 122.418C810.365 114.083 793.587 108.797 775.558 105.56C757.803 102.372 739.691 101.315 721.738 100.83C713.495 100.607 705.253 100.514 697.008 100.462C687.219 100.402 677.432 100.406 667.643 100.406L553.997 100H468.997Z" fill="url(#paint0_linear_206_14545)"/>
<mask id="mask0_206_14545" style="mask-type:luminance" maskUnits="userSpaceOnUse" x="100" y="100" width="824" height="824">
<path d="M468.997 100L357.361 100.406C347.554 100.406 337.747 100.402 327.94 100.462C319.678 100.514 311.421 100.607 303.161 100.83C285.167 101.315 267.014 102.373 249.217 105.565C231.164 108.801 214.36 114.085 197.959 122.414C181.835 130.602 167.082 141.297 154.291 154.057C141.501 166.816 130.78 181.53 122.573 197.609C114.217 213.98 108.919 230.752 105.673 248.771C102.477 266.517 101.418 284.618 100.931 302.563C100.709 310.8 100.613 319.039 100.563 327.279C100.503 337.063 100 349.216 100 358.999V554.998L100.508 667.427C100.508 677.223 100.504 687.019 100.563 696.815C100.613 705.067 100.709 713.317 100.932 721.566C101.418 739.542 102.479 757.675 105.678 775.452C108.923 793.485 114.22 810.27 122.569 826.653C130.777 842.759 141.5 857.495 154.291 870.272C167.081 883.049 181.831 893.757 197.951 901.956C214.362 910.302 231.174 915.595 249.238 918.836C267.026 922.029 285.174 923.087 303.161 923.574C311.421 923.796 319.679 923.891 327.941 923.941C337.748 924 347.554 924 357.361 924H667.643C677.432 924 687.219 924 697.008 923.941C705.253 923.891 713.495 923.796 721.738 923.574C739.698 923.087 757.816 922.027 775.579 918.832C793.597 915.59 810.367 910.299 826.738 901.959C842.83 893.761 857.555 883.051 870.321 870.272C883.086 857.497 893.786 842.763 901.978 826.661C910.317 810.269 915.603 793.476 918.843 775.431C922.034 757.66 923.092 739.534 923.577 721.566C923.8 713.316 923.894 705.066 923.945 696.815C924 687.019 924 677.223 924 667.427V356.627C924 346.845 924 337.062 923.945 327.279C923.894 319.038 923.8 310.799 923.576 302.563C923.092 284.609 922.033 266.502 918.84 248.75C915.602 230.74 910.314 213.979 901.982 197.616C893.789 181.533 883.088 166.817 870.321 154.057C857.556 141.299 842.834 130.605 826.746 122.418C810.365 114.083 793.587 108.797 775.558 105.56C757.803 102.372 739.691 101.315 721.738 100.83C713.495 100.607 705.253 100.514 697.008 100.462C687.219 100.402 677.432 100.406 667.643 100.406L553.997 100H468.997Z" fill="white"/>
</mask>
<g mask="url(#mask0_206_14545)">
<g opacity="0.4" filter="url(#filter1_f_206_14545)">
<mask id="mask1_206_14545" style="mask-type:luminance" maskUnits="userSpaceOnUse" x="0" y="0" width="1024" height="1024">
<path d="M1024 0H0V1024H1024V0Z" fill="white"/>
<path d="M468.997 100L357.361 100.406C347.554 100.406 337.747 100.402 327.94 100.462C319.678 100.514 311.421 100.607 303.161 100.83C285.167 101.315 267.014 102.373 249.217 105.565C231.164 108.801 214.36 114.085 197.959 122.414C181.835 130.602 167.082 141.297 154.291 154.057C141.501 166.816 130.78 181.53 122.573 197.609C114.217 213.98 108.919 230.752 105.673 248.771C102.477 266.517 101.418 284.618 100.931 302.563C100.709 310.8 100.613 319.039 100.563 327.279C100.503 337.063 100 349.216 100 358.999V554.998L100.508 667.427C100.508 677.223 100.504 687.019 100.563 696.815C100.613 705.067 100.709 713.317 100.932 721.566C101.418 739.542 102.479 757.675 105.678 775.452C108.923 793.485 114.22 810.27 122.569 826.653C130.777 842.759 141.5 857.495 154.291 870.272C167.081 883.049 181.831 893.757 197.951 901.956C214.362 910.302 231.174 915.595 249.238 918.836C267.026 922.029 285.174 923.087 303.161 923.574C311.421 923.796 319.679 923.891 327.941 923.941C337.748 924 347.554 924 357.361 924H667.643C677.432 924 687.219 924 697.008 923.941C705.253 923.891 713.495 923.796 721.738 923.574C739.698 923.087 757.816 922.027 775.579 918.832C793.597 915.59 810.367 910.299 826.738 901.959C842.83 893.761 857.555 883.051 870.321 870.272C883.086 857.497 893.786 842.763 901.978 826.661C910.317 810.269 915.603 793.476 918.843 775.431C922.034 757.66 923.092 739.534 923.577 721.566C923.8 713.316 923.894 705.066 923.945 696.815C924 687.019 924 677.223 924 667.427V356.627C924 346.845 924 337.062 923.945 327.279C923.894 319.038 923.8 310.799 923.576 302.563C923.092 284.609 922.033 266.502 918.84 248.75C915.602 230.74 910.314 213.979 901.982 197.616C893.789 181.533 883.088 166.817 870.321 154.057C857.556 141.299 842.834 130.605 826.746 122.418C810.365 114.083 793.587 108.797 775.558 105.56C757.803 102.372 739.691 101.315 721.738 100.83C713.495 100.607 705.253 100.514 697.008 100.462C687.219 100.402 677.432 100.406 667.643 100.406L553.997 100H468.997Z" fill="black"/>
</mask>
<g mask="url(#mask1_206_14545)">
<path d="M1024 0H0V1024H1024V0Z" fill="white"/>
</g>
</g>
</g>
<mask id="mask2_206_14545" style="mask-type:luminance" maskUnits="userSpaceOnUse" x="100" y="100" width="824" height="824">
<path d="M468.997 100L357.361 100.406C347.554 100.406 337.747 100.402 327.94 100.462C319.678 100.514 311.421 100.607 303.161 100.83C285.167 101.315 267.014 102.373 249.217 105.565C231.164 108.801 214.36 114.085 197.959 122.414C181.835 130.602 167.082 141.297 154.291 154.057C141.501 166.816 130.78 181.53 122.573 197.609C114.217 213.98 108.919 230.752 105.673 248.771C102.477 266.517 101.418 284.618 100.931 302.563C100.709 310.8 100.613 319.039 100.563 327.279C100.503 337.063 100 349.216 100 358.999V554.998L100.508 667.427C100.508 677.223 100.504 687.019 100.563 696.815C100.613 705.067 100.709 713.317 100.932 721.566C101.418 739.542 102.479 757.675 105.678 775.452C108.923 793.485 114.22 810.27 122.569 826.653C130.777 842.759 141.5 857.495 154.291 870.272C167.081 883.049 181.831 893.757 197.951 901.956C214.362 910.302 231.174 915.595 249.238 918.836C267.026 922.029 285.174 923.087 303.161 923.574C311.421 923.796 319.679 923.891 327.941 923.941C337.748 924 347.554 924 357.361 924H667.643C677.432 924 687.219 924 697.008 923.941C705.253 923.891 713.495 923.796 721.738 923.574C739.698 923.087 757.816 922.027 775.579 918.832C793.597 915.59 810.367 910.299 826.738 901.959C842.83 893.761 857.555 883.051 870.321 870.272C883.086 857.497 893.786 842.763 901.978 826.661C910.317 810.269 915.603 793.476 918.843 775.431C922.034 757.66 923.092 739.534 923.577 721.566C923.8 713.316 923.894 705.066 923.945 696.815C924 687.019 924 677.223 924 667.427V356.627C924 346.845 924 337.062 923.945 327.279C923.894 319.038 923.8 310.799 923.576 302.563C923.092 284.609 922.033 266.502 918.84 248.75C915.602 230.74 910.314 213.979 901.982 197.616C893.789 181.533 883.088 166.817 870.321 154.057C857.556 141.299 842.834 130.605 826.746 122.418C810.365 114.083 793.587 108.797 775.558 105.56C757.803 102.372 739.691 101.315 721.738 100.83C713.495 100.607 705.253 100.514 697.008 100.462C687.219 100.402 677.432 100.406 667.643 100.406L553.997 100H468.997Z" fill="white"/>
</mask>
<g mask="url(#mask2_206_14545)">
<g opacity="0.4" filter="url(#filter2_f_206_14545)">
<mask id="mask3_206_14545" style="mask-type:luminance" maskUnits="userSpaceOnUse" x="0" y="0" width="1024" height="1024">
<path d="M1024 0H0V1024H1024V0Z" fill="white"/>
<path d="M468.997 100L357.361 100.406C347.554 100.406 337.747 100.402 327.94 100.462C319.678 100.514 311.421 100.607 303.161 100.83C285.167 101.315 267.014 102.373 249.217 105.565C231.164 108.801 214.36 114.085 197.959 122.414C181.835 130.602 167.082 141.297 154.291 154.057C141.501 166.816 130.78 181.53 122.573 197.609C114.217 213.98 108.919 230.752 105.673 248.771C102.477 266.517 101.418 284.618 100.931 302.563C100.709 310.8 100.613 319.039 100.563 327.279C100.503 337.063 100 349.216 100 358.999V554.998L100.508 667.427C100.508 677.223 100.504 687.019 100.563 696.815C100.613 705.067 100.709 713.317 100.932 721.566C101.418 739.542 102.479 757.675 105.678 775.452C108.923 793.485 114.22 810.27 122.569 826.653C130.777 842.759 141.5 857.495 154.291 870.272C167.081 883.049 181.831 893.757 197.951 901.956C214.362 910.302 231.174 915.595 249.238 918.836C267.026 922.029 285.174 923.087 303.161 923.574C311.421 923.796 319.679 923.891 327.941 923.941C337.748 924 347.554 924 357.361 924H667.643C677.432 924 687.219 924 697.008 923.941C705.253 923.891 713.495 923.796 721.738 923.574C739.698 923.087 757.816 922.027 775.579 918.832C793.597 915.59 810.367 910.299 826.738 901.959C842.83 893.761 857.555 883.051 870.321 870.272C883.086 857.497 893.786 842.763 901.978 826.661C910.317 810.269 915.603 793.476 918.843 775.431C922.034 757.66 923.092 739.534 923.577 721.566C923.8 713.316 923.894 705.066 923.945 696.815C924 687.019 924 677.223 924 667.427V356.627C924 346.845 924 337.062 923.945 327.279C923.894 319.038 923.8 310.799 923.576 302.563C923.092 284.609 922.033 266.502 918.84 248.75C915.602 230.74 910.314 213.979 901.982 197.616C893.789 181.533 883.088 166.817 870.321 154.057C857.556 141.299 842.834 130.605 826.746 122.418C810.365 114.083 793.587 108.797 775.558 105.56C757.803 102.372 739.691 101.315 721.738 100.83C713.495 100.607 705.253 100.514 697.008 100.462C687.219 100.402 677.432 100.406 667.643 100.406L553.997 100H468.997Z" fill="black"/>
</mask>
<g mask="url(#mask3_206_14545)">
<path d="M1024 0H0V1024H1024V0Z" fill="black"/>
</g>
</g>
</g>
<g opacity="0.1" filter="url(#filter3_f_206_14545)">
<path d="M587.813 353.892C660.559 350.076 726.179 383.466 749.896 400.532C791.054 471.66 774.888 566.427 761.594 605.012C699.484 751.932 573.774 780.022 518.684 775.782C609.19 708.576 642.16 635.01 647.478 606.602C701.93 603.951 720.648 561.232 723.2 540.138C728.199 492.649 698.102 473.675 682.361 470.07C671.832 402.865 614.934 364.598 587.813 353.892ZM280.663 385.602C293.851 497.328 341.284 562.627 363.299 581.283C338.413 629.62 366.171 667.145 383.188 679.865C421.9 707.956 453.486 691.42 464.44 679.653C528.04 704.14 589.725 674.247 612.697 656.227C579.622 720.994 517.83 760.958 491.136 772.83C408.819 772.83 334.478 711.455 307.677 680.714C211.002 553.617 249.395 430.971 280.663 385.602ZM423.922 567.82C455.699 567.82 481.459 593.496 481.459 625.168C481.459 656.84 455.699 682.516 423.922 682.516C392.145 682.516 366.385 656.84 366.385 625.168C366.385 593.496 392.145 567.82 423.922 567.82ZM655.549 475.387C687.326 475.387 713.086 501.062 713.086 532.734C713.086 564.407 687.326 590.082 655.549 590.082C623.772 590.082 598.012 564.407 598.012 532.734C598.012 501.062 623.772 475.387 655.549 475.387ZM472.201 248.417C631.092 229.973 717.557 325.162 740.955 375.09C637.686 329.721 557.177 337.247 529.845 346.682C500.704 300.783 454.122 305.553 434.553 313.715C390.629 332.689 388.927 368.2 393.5 383.677C340.005 425.866 334.581 494.026 338.516 522.858C299.378 461.589 296.187 388.235 299.484 359.296C341.281 288.486 432.106 255.943 472.201 248.417ZM461.027 318.387C492.804 318.387 518.564 344.062 518.564 375.734C518.564 407.407 492.804 433.082 461.027 433.082C429.251 433.082 403.49 407.407 403.49 375.734C403.49 344.062 429.251 318.387 461.027 318.387Z" fill="black"/>
</g>
<path d="M587.812 353.891C660.558 350.075 726.178 383.466 749.895 400.532C791.053 471.66 774.888 566.427 761.594 605.012C699.484 751.931 573.775 780.022 518.684 775.782C609.19 708.576 642.159 635.01 647.477 606.602C701.929 603.951 720.648 561.232 723.2 540.138C728.199 492.649 698.101 473.674 682.36 470.07C671.831 402.865 614.933 364.597 587.812 353.891ZM280.662 385.602C293.85 497.328 341.284 562.626 363.299 581.282C338.412 629.619 366.17 667.145 383.187 679.865C421.899 707.956 453.486 691.42 464.44 679.653C528.039 704.14 589.724 674.247 612.696 656.227C579.62 720.994 517.829 760.958 491.135 772.83C408.818 772.83 334.477 711.454 307.676 680.713C211.001 553.616 249.394 430.971 280.662 385.602ZM423.922 567.82C455.699 567.821 481.459 593.496 481.459 625.168C481.459 656.84 455.698 682.515 423.922 682.516C392.145 682.516 366.385 656.84 366.385 625.168C366.385 593.496 392.145 567.82 423.922 567.82ZM655.549 475.387C687.325 475.387 713.085 501.062 713.085 532.734C713.085 564.406 687.325 590.082 655.549 590.082C623.772 590.082 598.012 564.406 598.012 532.734C598.012 501.062 623.772 475.387 655.549 475.387ZM472.201 248.416C631.092 229.972 717.557 325.163 740.955 375.09C637.687 329.721 557.178 337.247 529.845 346.681C500.704 300.782 454.121 305.552 434.552 313.714C390.628 332.688 388.927 368.199 393.5 383.676C340.005 425.865 334.58 494.024 338.515 522.857C299.377 461.588 296.187 388.235 299.483 359.296C341.28 288.486 432.106 255.942 472.201 248.416ZM461.027 318.387C492.804 318.387 518.564 344.062 518.564 375.734C518.564 407.406 492.804 433.082 461.027 433.082C429.251 433.082 403.49 407.406 403.49 375.734C403.49 344.062 429.251 318.387 461.027 318.387Z" fill="white"/>
<defs>
<filter id="filter0_f_206_14545" x="80" y="80" width="864" height="864" filterUnits="userSpaceOnUse" color-interpolation-filters="sRGB">
<feFlood flood-opacity="0" result="BackgroundImageFix"/>
<feBlend mode="normal" in="SourceGraphic" in2="BackgroundImageFix" result="shape"/>
<feGaussianBlur stdDeviation="10" result="effect1_foregroundBlur_206_14545"/>
</filter>
<filter id="filter1_f_206_14545" x="-8" y="-8" width="1040" height="1040" filterUnits="userSpaceOnUse" color-interpolation-filters="sRGB">
<feFlood flood-opacity="0" result="BackgroundImageFix"/>
<feBlend mode="normal" in="SourceGraphic" in2="BackgroundImageFix" result="shape"/>
<feGaussianBlur stdDeviation="4" result="effect1_foregroundBlur_206_14545"/>
</filter>
<filter id="filter2_f_206_14545" x="-8" y="-8" width="1040" height="1040" filterUnits="userSpaceOnUse" color-interpolation-filters="sRGB">
<feFlood flood-opacity="0" result="BackgroundImageFix"/>
<feBlend mode="normal" in="SourceGraphic" in2="BackgroundImageFix" result="shape"/>
<feGaussianBlur stdDeviation="4" result="effect1_foregroundBlur_206_14545"/>
</filter>
<filter id="filter3_f_206_14545" x="189.798" y="189.778" width="642.702" height="642.698" filterUnits="userSpaceOnUse" color-interpolation-filters="sRGB">
<feFlood flood-opacity="0" result="BackgroundImageFix"/>
<feBlend mode="normal" in="SourceGraphic" in2="BackgroundImageFix" result="shape"/>
<feGaussianBlur stdDeviation="28.15" result="effect1_foregroundBlur_206_14545"/>
</filter>
<linearGradient id="paint0_linear_206_14545" x1="-100" y1="100" x2="-100" y2="924" gradientUnits="userSpaceOnUse">
<stop stop-color="#1CB3FF"/>
<stop offset="1" stop-color="#0088CC"/>
</linearGradient>
</defs>
</svg>
